<svg xmlns="http://www.w3.org/2000/svg" viewBox="0 0 128 128"><defs><style>.cls-1{isolation:isolate;}.cls-2{mix-blend-mode:multiply;}.cls-3{fill:#262835;stroke:#262835;}.cls-3,.cls-4,.cls-5,.cls-6{stroke-linecap:round;stroke-linejoin:round;}.cls-4{fill:#c9222e;stroke:#c9222e;}.cls-5{fill:#23a6dc;stroke:#23a6dc;}.cls-6{fill:#e8c81b;stroke:#e8c81b;}</style></defs><title>train</title><g class="cls-1"><g id="icons" class="cls-2"><path class="cls-3" d="M86,64.5a21.49,21.49,0,0,0-20.76,16h5.23a16.5,16.5,0,1,1,0,11H65.24A21.49,21.49,0,1,0,86,64.5Z"/><path class="cls-3" d="M53.54,91.5a16.5,16.5,0,1,1,0-11h5.23a21.5,21.5,0,1,0,0,11Z"/><path class="cls-4" d="M86,79.5a6.5,6.5,0,0,0-6,4H44a6.5,6.5,0,1,0,0,5H80a6.5,6.5,0,1,0,6-9Z"/><path class="cls-5" d="M119.5,87.5l-6-7.14a4,4,0,0,1,.21-5.34,13.92,13.92,0,0,0,3.74-9.68A14.27,14.27,0,0,0,103.09,51.5H99.5a6,6,0,0,1-6-6v-3h-17v3a6,6,0,0,1-6,6h-15a6,6,0,0,1-6-6v-19h2.83a3.11,3.11,0,0,0,3.17-2.84,3,3,0,0,0-3-3.16h-41a3,3,0,0,0-3,3v59a5,5,0,0,0,5,5h.05c0-.5-.05-1-.05-1.5a24.5,24.5,0,0,1,48.37-5.5h.26A24.5,24.5,0,0,1,110.5,86c0,.5,0,1-.05,1.5Zm-76-42a6,6,0,0,1-6,6h-23v-25h29Z"/><path class="cls-6" d="M92.53,39.5H77.47a2,2,0,0,1-1.67-1,8.51,8.51,0,0,1,0-9,2,2,0,0,1,1.67-1H92.53a2,2,0,0,1,1.67,1,8.51,8.51,0,0,1,0,9A2,2,0,0,1,92.53,39.5Z"/></g></g></svg>